# xmcd
#
# Track frame offsets:
#	150
#	21182
#	37352
#	52532
#	67397
#	83757
#	100187
#	119562
#	140148
#	159337
#
# Disc length: 2313 seconds
#
# Revision: 0
# Processed by: cddbd v1.4PL0 Copyright (c) Steve Scherf et al.
# Submitted via: EasyCDDAExtractor 4.5.0.2
#
DISCID=8b09070a
DTITLE=Antwniadhs Xristos - H prwth agaph cd2
DYEAR=2001
DGENRE=
TTITLE0=Feugw makria
TTITLE1=O dikos mou o 8eos
TTITLE2=Dikaiwma mou
TTITLE3=De ftais esy
TTITLE4=Opote 8es
TTITLE5=Ase me
TTITLE6=Th deuterh fora 
TTITLE7=Yparxoun kai kala paidia
TTITLE8=Kanonika egw
TTITLE9=Lykourgou kai a8hnas
EXTD=KLcanislupus©
EXTT0=
EXTT1=
EXTT2=
EXTT3=
EXTT4=
EXTT5=
EXTT6=
EXTT7=
EXTT8=
EXTT9=
PLAYORDER=
